# xmcd CD database file
#
# Track frame offsets:
#       150
#       12207
#       25320
#       41122
#       58790
#       71906
#       87750
#       102083
#       118934
#       132543
#       145717
#       159523
#       173519
#       187791
#       199221
#       209411
#       219064
#       233523
#       246610
#       259279
#
# Disc length: 3600 seconds
#
# Revision: 1
# Processed by: cddbd v1.5.2PL0 Copyright (c) Steve Scherf et al.
# Submitted via: jack 3.1.1
#
DISCID=200e0e14
DTITLE=Robert C. O'Brien - Mrs. Frisby and the Rats of NIMH
DYEAR=1993
DGENRE=Speech
TTITLE0=Chapter 16A: The Maze
TTITLE1=Chapter 16B
TTITLE2=Chapter 16C
TTITLE3=Chapter 16D
TTITLE4=Chapter 17A: A Lesson in Reading
TTITLE5=Chapter 17B
TTITLE6=Chapter 17C
TTITLE7=Chapter 17D
TTITLE8=Chapter 18A: The Air Ducts
TTITLE9=Chapter 18B
TTITLE10=Chapter 18C
TTITLE11=Chapter 18D
TTITLE12=Chapter 18E
TTITLE13=Chapter 18F
TTITLE14=Chapter 18G
TTITLE15=Chapter 18H
TTITLE16=Chapter 19A: The Boniface Estate
TTITLE17=Chapter 19B
TTITLE18=Chapter 19C
TTITLE19=Chapter 19D
EXTD=
EXTT0=
EXTT1=
EXTT2=
EXTT3=
EXTT4=
EXTT5=
EXTT6=
EXTT7=
EXTT8=
EXTT9=
EXTT10=
EXTT11=
EXTT12=
EXTT13=
EXTT14=
EXTT15=
EXTT16=
EXTT17=
EXTT18=
EXTT19=
PLAYORDER=
